<?xml version="1.0" encoding="UTF-8" standalone="no"?>
<svg width="240" height="240" viewBox="0 0 240 240" 
     xmlns="http://www.w3.org/2000/svg">
  <desc>Brick-style blocky version - auto bricks side view</desc>
  <rect x="0" y="181" width="36" height="15" fill="rgb(82,211,216)"/>
  <line x1="0" y1="181" x2="36" y2="181" stroke="rgb(0,0,0)" stroke-width="0.5" opacity="0.3"/>
  <line x1="0" y1="196" x2="36" y2="196" stroke="rgb(0,0,0)" stroke-width="0.5" opacity="0.3"/>
  <line x1="0" y1="181" x2="0" y2="196" stroke="rgb(0,0,0)" stroke-width="0.5" opacity="0.3"/>
  <line x1="36" y1="181" x2="36" y2="196" stroke="rgb(0,0,0)" stroke-width="0.5" opacity="0.3"/>
  <rect x="2.5" y="179" width="7" height="2" fill="rgb(82,211,216)"/>
  <rect x="2.5" y="179" width="7" height="2" fill="none" stroke="rgb(0,0,0)" stroke-width="0.5" opacity="0.2"/>
  <rect x="14.5" y="179" width="7" height="2" fill="rgb(82,211,216)"/>
  <rect x="14.5" y="179" width="7" height="2" fill="none" stroke="rgb(0,0,0)" stroke-width="0.5" opacity="0.2"/>
  <rect x="26.5" y="179" width="7" height="2" fill="rgb(82,211,216)"/>
  <rect x="26.5" y="179" width="7" height="2" fill="none" stroke="rgb(0,0,0)" stroke-width="0.5" opacity="0.2"/>
  <rect x="72" y="181" width="24" height="15" fill="rgb(56,65,157)"/>
  <line x1="72" y1="181" x2="96" y2="181" stroke="rgb(0,0,0)" stroke-width="0.5" opacity="0.3"/>
  <line x1="72" y1="196" x2="96" y2="196" stroke="rgb(0,0,0)" stroke-width="0.5" opacity="0.3"/>
  <line x1="72" y1="181" x2="72" y2="196" stroke="rgb(0,0,0)" stroke-width="0.5" opacity="0.3"/>
  <line x1="96" y1="181" x2="96" y2="196" stroke="rgb(0,0,0)" stroke-width="0.5" opacity="0.3"/>
  <rect x="74.5" y="179" width="7" height="2" fill="rgb(56,65,157)"/>
  <rect x="74.5" y="179" width="7" height="2" fill="none" stroke="rgb(0,0,0)" stroke-width="0.5" opacity="0.2"/>
  <rect x="86.5" y="179" width="7" height="2" fill="rgb(56,65,157)"/>
  <rect x="86.5" y="179" width="7" height="2" fill="none" stroke="rgb(0,0,0)" stroke-width="0.5" opacity="0.2"/>
  <rect x="204" y="181" width="36" height="15" fill="rgb(242,245,152)"/>
  <line x1="204" y1="181" x2="240" y2="181" stroke="rgb(0,0,0)" stroke-width="0.5" opacity="0.3"/>
  <line x1="204" y1="196" x2="240" y2="196" stroke="rgb(0,0,0)" stroke-width="0.5" opacity="0.3"/>
  <line x1="204" y1="181" x2="204" y2="196" stroke="rgb(0,0,0)" stroke-width="0.5" opacity="0.3"/>
  <line x1="240" y1="181" x2="240" y2="196" stroke="rgb(0,0,0)" stroke-width="0.5" opacity="0.3"/>
  <rect x="206.5" y="179" width="7" height="2" fill="rgb(242,245,152)"/>
  <rect x="206.5" y="179" width="7" height="2" fill="none" stroke="rgb(0,0,0)" stroke-width="0.5" opacity="0.2"/>
  <rect x="218.5" y="179" width="7" height="2" fill="rgb(242,245,152)"/>
  <rect x="218.5" y="179" width="7" height="2" fill="none" stroke="rgb(0,0,0)" stroke-width="0.5" opacity="0.2"/>
  <rect x="230.5" y="179" width="7" height="2" fill="rgb(242,245,152)"/>
  <rect x="230.5" y="179" width="7" height="2" fill="none" stroke="rgb(0,0,0)" stroke-width="0.5" opacity="0.2"/>
  <rect x="0" y="166" width="48" height="15" fill="rgb(82,211,216)"/>
  <line x1="0" y1="166" x2="48" y2="166" stroke="rgb(0,0,0)" stroke-width="0.5" opacity="0.3"/>
  <line x1="0" y1="181" x2="48" y2="181" stroke="rgb(0,0,0)" stroke-width="0.5" opacity="0.3"/>
  <line x1="0" y1="166" x2="0" y2="181" stroke="rgb(0,0,0)" stroke-width="0.5" opacity="0.3"/>
  <line x1="48" y1="166" x2="48" y2="181" stroke="rgb(0,0,0)" stroke-width="0.5" opacity="0.3"/>
  <rect x="2.5" y="164" width="7" height="2" fill="rgb(82,211,216)"/>
  <rect x="2.5" y="164" width="7" height="2" fill="none" stroke="rgb(0,0,0)" stroke-width="0.5" opacity="0.2"/>
  <rect x="14.5" y="164" width="7" height="2" fill="rgb(82,211,216)"/>
  <rect x="14.5" y="164" width="7" height="2" fill="none" stroke="rgb(0,0,0)" stroke-width="0.5" opacity="0.2"/>
  <rect x="26.5" y="164" width="7" height="2" fill="rgb(82,211,216)"/>
  <rect x="26.5" y="164" width="7" height="2" fill="none" stroke="rgb(0,0,0)" stroke-width="0.5" opacity="0.2"/>
  <rect x="38.5" y="164" width="7" height="2" fill="rgb(82,211,216)"/>
  <rect x="38.5" y="164" width="7" height="2" fill="none" stroke="rgb(0,0,0)" stroke-width="0.5" opacity="0.2"/>
  <rect x="72" y="166" width="24" height="15" fill="rgb(56,65,157)"/>
  <line x1="72" y1="166" x2="96" y2="166" stroke="rgb(0,0,0)" stroke-width="0.5" opacity="0.3"/>
  <line x1="72" y1="181" x2="96" y2="181" stroke="rgb(0,0,0)" stroke-width="0.5" opacity="0.3"/>
  <line x1="72" y1="166" x2="72" y2="181" stroke="rgb(0,0,0)" stroke-width="0.5" opacity="0.3"/>
  <line x1="96" y1="166" x2="96" y2="181" stroke="rgb(0,0,0)" stroke-width="0.5" opacity="0.3"/>
  <rect x="74.5" y="164" width="7" height="2" fill="rgb(56,65,157)"/>
  <rect x="74.5" y="164" width="7" height="2" fill="none" stroke="rgb(0,0,0)" stroke-width="0.5" opacity="0.2"/>
  <rect x="86.5" y="164" width="7" height="2" fill="rgb(56,65,157)"/>
  <rect x="86.5" y="164" width="7" height="2" fill="none" stroke="rgb(0,0,0)" stroke-width="0.5" opacity="0.2"/>
  <rect x="204" y="166" width="36" height="15" fill="rgb(242,245,152)"/>
  <line x1="204" y1="166" x2="240" y2="166" stroke="rgb(0,0,0)" stroke-width="0.5" opacity="0.3"/>
  <line x1="204" y1="181" x2="240" y2="181" stroke="rgb(0,0,0)" stroke-width="0.5" opacity="0.3"/>
  <line x1="204" y1="166" x2="204" y2="181" stroke="rgb(0,0,0)" stroke-width="0.5" opacity="0.3"/>
  <line x1="240" y1="166" x2="240" y2="181" stroke="rgb(0,0,0)" stroke-width="0.5" opacity="0.3"/>
  <rect x="206.5" y="164" width="7" height="2" fill="rgb(242,245,152)"/>
  <rect x="206.5" y="164" width="7" height="2" fill="none" stroke="rgb(0,0,0)" stroke-width="0.5" opacity="0.2"/>
  <rect x="218.5" y="164" width="7" height="2" fill="rgb(242,245,152)"/>
  <rect x="218.5" y="164" width="7" height="2" fill="none" stroke="rgb(0,0,0)" stroke-width="0.5" opacity="0.2"/>
  <rect x="230.5" y="164" width="7" height="2" fill="rgb(242,245,152)"/>
  <rect x="230.5" y="164" width="7" height="2" fill="none" stroke="rgb(0,0,0)" stroke-width="0.5" opacity="0.2"/>
  <rect x="24" y="151" width="12" height="15" fill="rgb(82,211,216)"/>
  <line x1="24" y1="151" x2="36" y2="151" stroke="rgb(0,0,0)" stroke-width="0.5" opacity="0.3"/>
  <line x1="24" y1="166" x2="36" y2="166" stroke="rgb(0,0,0)" stroke-width="0.5" opacity="0.3"/>
  <line x1="24" y1="151" x2="24" y2="166" stroke="rgb(0,0,0)" stroke-width="0.5" opacity="0.3"/>
  <line x1="36" y1="151" x2="36" y2="166" stroke="rgb(0,0,0)" stroke-width="0.5" opacity="0.3"/>
  <rect x="26.5" y="149" width="7" height="2" fill="rgb(82,211,216)"/>
  <rect x="26.5" y="149" width="7" height="2" fill="none" stroke="rgb(0,0,0)" stroke-width="0.5" opacity="0.2"/>
  <rect x="36" y="151" width="12" height="15" fill="rgb(82,211,216)"/>
  <line x1="36" y1="151" x2="48" y2="151" stroke="rgb(0,0,0)" stroke-width="0.5" opacity="0.3"/>
  <line x1="36" y1="166" x2="48" y2="166" stroke="rgb(0,0,0)" stroke-width="0.5" opacity="0.3"/>
  <line x1="36" y1="151" x2="36" y2="166" stroke="rgb(0,0,0)" stroke-width="0.5" opacity="0.3"/>
  <line x1="48" y1="151" x2="48" y2="166" stroke="rgb(0,0,0)" stroke-width="0.5" opacity="0.3"/>
  <rect x="38.5" y="149" width="7" height="2" fill="rgb(82,211,216)"/>
  <rect x="38.5" y="149" width="7" height="2" fill="none" stroke="rgb(0,0,0)" stroke-width="0.5" opacity="0.2"/>
  <rect x="72" y="151" width="24" height="15" fill="rgb(56,65,157)"/>
  <line x1="72" y1="151" x2="96" y2="151" stroke="rgb(0,0,0)" stroke-width="0.5" opacity="0.3"/>
  <line x1="72" y1="166" x2="96" y2="166" stroke="rgb(0,0,0)" stroke-width="0.5" opacity="0.3"/>
  <line x1="72" y1="151" x2="72" y2="166" stroke="rgb(0,0,0)" stroke-width="0.5" opacity="0.3"/>
  <line x1="96" y1="151" x2="96" y2="166" stroke="rgb(0,0,0)" stroke-width="0.5" opacity="0.3"/>
  <rect x="74.5" y="149" width="7" height="2" fill="rgb(56,65,157)"/>
  <rect x="74.5" y="149" width="7" height="2" fill="none" stroke="rgb(0,0,0)" stroke-width="0.5" opacity="0.2"/>
  <rect x="86.5" y="149" width="7" height="2" fill="rgb(56,65,157)"/>
  <rect x="86.5" y="149" width="7" height="2" fill="none" stroke="rgb(0,0,0)" stroke-width="0.5" opacity="0.2"/>
  <rect x="204" y="151" width="36" height="15" fill="rgb(242,245,152)"/>
  <line x1="204" y1="151" x2="240" y2="151" stroke="rgb(0,0,0)" stroke-width="0.5" opacity="0.3"/>
  <line x1="204" y1="166" x2="240" y2="166" stroke="rgb(0,0,0)" stroke-width="0.5" opacity="0.3"/>
  <line x1="204" y1="151" x2="204" y2="166" stroke="rgb(0,0,0)" stroke-width="0.5" opacity="0.3"/>
  <line x1="240" y1="151" x2="240" y2="166" stroke="rgb(0,0,0)" stroke-width="0.5" opacity="0.3"/>
  <rect x="206.5" y="149" width="7" height="2" fill="rgb(242,245,152)"/>
  <rect x="206.5" y="149" width="7" height="2" fill="none" stroke="rgb(0,0,0)" stroke-width="0.5" opacity="0.2"/>
  <rect x="218.5" y="149" width="7" height="2" fill="rgb(242,245,152)"/>
  <rect x="218.5" y="149" width="7" height="2" fill="none" stroke="rgb(0,0,0)" stroke-width="0.5" opacity="0.2"/>
  <rect x="230.5" y="149" width="7" height="2" fill="rgb(242,245,152)"/>
  <rect x="230.5" y="149" width="7" height="2" fill="none" stroke="rgb(0,0,0)" stroke-width="0.5" opacity="0.2"/>
  <rect x="24" y="136" width="24" height="15" fill="rgb(82,211,216)"/>
  <line x1="24" y1="136" x2="48" y2="136" stroke="rgb(0,0,0)" stroke-width="0.5" opacity="0.3"/>
  <line x1="24" y1="151" x2="48" y2="151" stroke="rgb(0,0,0)" stroke-width="0.5" opacity="0.3"/>
  <line x1="24" y1="136" x2="24" y2="151" stroke="rgb(0,0,0)" stroke-width="0.5" opacity="0.3"/>
  <line x1="48" y1="136" x2="48" y2="151" stroke="rgb(0,0,0)" stroke-width="0.5" opacity="0.3"/>
  <rect x="26.5" y="134" width="7" height="2" fill="rgb(82,211,216)"/>
  <rect x="26.5" y="134" width="7" height="2" fill="none" stroke="rgb(0,0,0)" stroke-width="0.5" opacity="0.2"/>
  <rect x="38.5" y="134" width="7" height="2" fill="rgb(82,211,216)"/>
  <rect x="38.5" y="134" width="7" height="2" fill="none" stroke="rgb(0,0,0)" stroke-width="0.5" opacity="0.2"/>
  <rect x="72" y="136" width="24" height="15" fill="rgb(56,65,157)"/>
  <line x1="72" y1="136" x2="96" y2="136" stroke="rgb(0,0,0)" stroke-width="0.5" opacity="0.3"/>
  <line x1="72" y1="151" x2="96" y2="151" stroke="rgb(0,0,0)" stroke-width="0.5" opacity="0.3"/>
  <line x1="72" y1="136" x2="72" y2="151" stroke="rgb(0,0,0)" stroke-width="0.5" opacity="0.3"/>
  <line x1="96" y1="136" x2="96" y2="151" stroke="rgb(0,0,0)" stroke-width="0.5" opacity="0.3"/>
  <rect x="74.5" y="134" width="7" height="2" fill="rgb(56,65,157)"/>
  <rect x="74.5" y="134" width="7" height="2" fill="none" stroke="rgb(0,0,0)" stroke-width="0.5" opacity="0.2"/>
  <rect x="86.5" y="134" width="7" height="2" fill="rgb(56,65,157)"/>
  <rect x="86.5" y="134" width="7" height="2" fill="none" stroke="rgb(0,0,0)" stroke-width="0.5" opacity="0.2"/>
  <rect x="204" y="136" width="36" height="15" fill="rgb(242,245,152)"/>
  <line x1="204" y1="136" x2="240" y2="136" stroke="rgb(0,0,0)" stroke-width="0.5" opacity="0.3"/>
  <line x1="204" y1="151" x2="240" y2="151" stroke="rgb(0,0,0)" stroke-width="0.5" opacity="0.3"/>
  <line x1="204" y1="136" x2="204" y2="151" stroke="rgb(0,0,0)" stroke-width="0.5" opacity="0.3"/>
  <line x1="240" y1="136" x2="240" y2="151" stroke="rgb(0,0,0)" stroke-width="0.5" opacity="0.3"/>
  <rect x="206.5" y="134" width="7" height="2" fill="rgb(242,245,152)"/>
  <rect x="206.5" y="134" width="7" height="2" fill="none" stroke="rgb(0,0,0)" stroke-width="0.5" opacity="0.2"/>
  <rect x="218.5" y="134" width="7" height="2" fill="rgb(242,245,152)"/>
  <rect x="218.5" y="134" width="7" height="2" fill="none" stroke="rgb(0,0,0)" stroke-width="0.5" opacity="0.2"/>
  <rect x="230.5" y="134" width="7" height="2" fill="rgb(242,245,152)"/>
  <rect x="230.5" y="134" width="7" height="2" fill="none" stroke="rgb(0,0,0)" stroke-width="0.5" opacity="0.2"/>
  <rect x="0" y="121" width="48" height="15" fill="rgb(82,211,216)"/>
  <line x1="0" y1="121" x2="48" y2="121" stroke="rgb(0,0,0)" stroke-width="0.5" opacity="0.3"/>
  <line x1="0" y1="136" x2="48" y2="136" stroke="rgb(0,0,0)" stroke-width="0.5" opacity="0.3"/>
  <line x1="0" y1="121" x2="0" y2="136" stroke="rgb(0,0,0)" stroke-width="0.5" opacity="0.3"/>
  <line x1="48" y1="121" x2="48" y2="136" stroke="rgb(0,0,0)" stroke-width="0.5" opacity="0.3"/>
  <rect x="2.5" y="119" width="7" height="2" fill="rgb(82,211,216)"/>
  <rect x="2.5" y="119" width="7" height="2" fill="none" stroke="rgb(0,0,0)" stroke-width="0.5" opacity="0.2"/>
  <rect x="14.5" y="119" width="7" height="2" fill="rgb(82,211,216)"/>
  <rect x="14.5" y="119" width="7" height="2" fill="none" stroke="rgb(0,0,0)" stroke-width="0.5" opacity="0.2"/>
  <rect x="26.5" y="119" width="7" height="2" fill="rgb(82,211,216)"/>
  <rect x="26.5" y="119" width="7" height="2" fill="none" stroke="rgb(0,0,0)" stroke-width="0.5" opacity="0.2"/>
  <rect x="38.5" y="119" width="7" height="2" fill="rgb(82,211,216)"/>
  <rect x="38.5" y="119" width="7" height="2" fill="none" stroke="rgb(0,0,0)" stroke-width="0.5" opacity="0.2"/>
  <rect x="72" y="121" width="24" height="15" fill="rgb(56,65,157)"/>
  <line x1="72" y1="121" x2="96" y2="121" stroke="rgb(0,0,0)" stroke-width="0.5" opacity="0.3"/>
  <line x1="72" y1="136" x2="96" y2="136" stroke="rgb(0,0,0)" stroke-width="0.5" opacity="0.3"/>
  <line x1="72" y1="121" x2="72" y2="136" stroke="rgb(0,0,0)" stroke-width="0.5" opacity="0.3"/>
  <line x1="96" y1="121" x2="96" y2="136" stroke="rgb(0,0,0)" stroke-width="0.5" opacity="0.3"/>
  <rect x="74.5" y="119" width="7" height="2" fill="rgb(56,65,157)"/>
  <rect x="74.5" y="119" width="7" height="2" fill="none" stroke="rgb(0,0,0)" stroke-width="0.5" opacity="0.2"/>
  <rect x="86.5" y="119" width="7" height="2" fill="rgb(56,65,157)"/>
  <rect x="86.5" y="119" width="7" height="2" fill="none" stroke="rgb(0,0,0)" stroke-width="0.5" opacity="0.2"/>
  <rect x="96" y="121" width="48" height="15" fill="rgb(56,65,157)"/>
  <line x1="96" y1="121" x2="144" y2="121" stroke="rgb(0,0,0)" stroke-width="0.5" opacity="0.3"/>
  <line x1="96" y1="136" x2="144" y2="136" stroke="rgb(0,0,0)" stroke-width="0.5" opacity="0.3"/>
  <line x1="96" y1="121" x2="96" y2="136" stroke="rgb(0,0,0)" stroke-width="0.5" opacity="0.3"/>
  <line x1="144" y1="121" x2="144" y2="136" stroke="rgb(0,0,0)" stroke-width="0.5" opacity="0.3"/>
  <rect x="98.5" y="119" width="7" height="2" fill="rgb(56,65,157)"/>
  <rect x="98.5" y="119" width="7" height="2" fill="none" stroke="rgb(0,0,0)" stroke-width="0.5" opacity="0.2"/>
  <rect x="110.5" y="119" width="7" height="2" fill="rgb(56,65,157)"/>
  <rect x="110.5" y="119" width="7" height="2" fill="none" stroke="rgb(0,0,0)" stroke-width="0.5" opacity="0.2"/>
  <rect x="122.5" y="119" width="7" height="2" fill="rgb(56,65,157)"/>
  <rect x="122.5" y="119" width="7" height="2" fill="none" stroke="rgb(0,0,0)" stroke-width="0.5" opacity="0.2"/>
  <rect x="134.5" y="119" width="7" height="2" fill="rgb(56,65,157)"/>
  <rect x="134.5" y="119" width="7" height="2" fill="none" stroke="rgb(0,0,0)" stroke-width="0.5" opacity="0.2"/>
  <rect x="144" y="121" width="12" height="15" fill="rgb(55,65,158)"/>
  <line x1="144" y1="121" x2="156" y2="121" stroke="rgb(0,0,0)" stroke-width="0.5" opacity="0.3"/>
  <line x1="144" y1="136" x2="156" y2="136" stroke="rgb(0,0,0)" stroke-width="0.5" opacity="0.3"/>
  <line x1="144" y1="121" x2="144" y2="136" stroke="rgb(0,0,0)" stroke-width="0.5" opacity="0.3"/>
  <line x1="156" y1="121" x2="156" y2="136" stroke="rgb(0,0,0)" stroke-width="0.5" opacity="0.3"/>
  <rect x="146.5" y="119" width="7" height="2" fill="rgb(55,65,158)"/>
  <rect x="146.5" y="119" width="7" height="2" fill="none" stroke="rgb(0,0,0)" stroke-width="0.5" opacity="0.2"/>
  <rect x="204" y="121" width="36" height="15" fill="rgb(242,245,150)"/>
  <line x1="204" y1="121" x2="240" y2="121" stroke="rgb(0,0,0)" stroke-width="0.5" opacity="0.3"/>
  <line x1="204" y1="136" x2="240" y2="136" stroke="rgb(0,0,0)" stroke-width="0.5" opacity="0.3"/>
  <line x1="204" y1="121" x2="204" y2="136" stroke="rgb(0,0,0)" stroke-width="0.5" opacity="0.3"/>
  <line x1="240" y1="121" x2="240" y2="136" stroke="rgb(0,0,0)" stroke-width="0.5" opacity="0.3"/>
  <rect x="206.5" y="119" width="7" height="2" fill="rgb(242,245,150)"/>
  <rect x="206.5" y="119" width="7" height="2" fill="none" stroke="rgb(0,0,0)" stroke-width="0.5" opacity="0.2"/>
  <rect x="218.5" y="119" width="7" height="2" fill="rgb(242,245,150)"/>
  <rect x="218.5" y="119" width="7" height="2" fill="none" stroke="rgb(0,0,0)" stroke-width="0.5" opacity="0.2"/>
  <rect x="230.5" y="119" width="7" height="2" fill="rgb(242,245,150)"/>
  <rect x="230.5" y="119" width="7" height="2" fill="none" stroke="rgb(0,0,0)" stroke-width="0.5" opacity="0.2"/>
  <rect x="0" y="106" width="36" height="15" fill="rgb(82,211,216)"/>
  <line x1="0" y1="106" x2="36" y2="106" stroke="rgb(0,0,0)" stroke-width="0.5" opacity="0.3"/>
  <line x1="0" y1="121" x2="36" y2="121" stroke="rgb(0,0,0)" stroke-width="0.5" opacity="0.3"/>
  <line x1="0" y1="106" x2="0" y2="121" stroke="rgb(0,0,0)" stroke-width="0.5" opacity="0.3"/>
  <line x1="36" y1="106" x2="36" y2="121" stroke="rgb(0,0,0)" stroke-width="0.5" opacity="0.3"/>
  <rect x="2.5" y="104" width="7" height="2" fill="rgb(82,211,216)"/>
  <rect x="2.5" y="104" width="7" height="2" fill="none" stroke="rgb(0,0,0)" stroke-width="0.5" opacity="0.2"/>
  <rect x="14.5" y="104" width="7" height="2" fill="rgb(82,211,216)"/>
  <rect x="14.5" y="104" width="7" height="2" fill="none" stroke="rgb(0,0,0)" stroke-width="0.5" opacity="0.2"/>
  <rect x="26.5" y="104" width="7" height="2" fill="rgb(82,211,216)"/>
  <rect x="26.5" y="104" width="7" height="2" fill="none" stroke="rgb(0,0,0)" stroke-width="0.5" opacity="0.2"/>
  <rect x="72" y="106" width="48" height="15" fill="rgb(56,65,157)"/>
  <line x1="72" y1="106" x2="120" y2="106" stroke="rgb(0,0,0)" stroke-width="0.5" opacity="0.3"/>
  <line x1="72" y1="121" x2="120" y2="121" stroke="rgb(0,0,0)" stroke-width="0.5" opacity="0.3"/>
  <line x1="72" y1="106" x2="72" y2="121" stroke="rgb(0,0,0)" stroke-width="0.5" opacity="0.3"/>
  <line x1="120" y1="106" x2="120" y2="121" stroke="rgb(0,0,0)" stroke-width="0.5" opacity="0.3"/>
  <rect x="74.5" y="104" width="7" height="2" fill="rgb(56,65,157)"/>
  <rect x="74.5" y="104" width="7" height="2" fill="none" stroke="rgb(0,0,0)" stroke-width="0.5" opacity="0.2"/>
  <rect x="86.5" y="104" width="7" height="2" fill="rgb(56,65,157)"/>
  <rect x="86.5" y="104" width="7" height="2" fill="none" stroke="rgb(0,0,0)" stroke-width="0.5" opacity="0.2"/>
  <rect x="98.5" y="104" width="7" height="2" fill="rgb(56,65,157)"/>
  <rect x="98.5" y="104" width="7" height="2" fill="none" stroke="rgb(0,0,0)" stroke-width="0.5" opacity="0.2"/>
  <rect x="110.5" y="104" width="7" height="2" fill="rgb(56,65,157)"/>
  <rect x="110.5" y="104" width="7" height="2" fill="none" stroke="rgb(0,0,0)" stroke-width="0.5" opacity="0.2"/>
  <rect x="120" y="106" width="36" height="15" fill="rgb(56,65,157)"/>
  <line x1="120" y1="106" x2="156" y2="106" stroke="rgb(0,0,0)" stroke-width="0.5" opacity="0.3"/>
  <line x1="120" y1="121" x2="156" y2="121" stroke="rgb(0,0,0)" stroke-width="0.5" opacity="0.3"/>
  <line x1="120" y1="106" x2="120" y2="121" stroke="rgb(0,0,0)" stroke-width="0.5" opacity="0.3"/>
  <line x1="156" y1="106" x2="156" y2="121" stroke="rgb(0,0,0)" stroke-width="0.5" opacity="0.3"/>
  <rect x="122.5" y="104" width="7" height="2" fill="rgb(56,65,157)"/>
  <rect x="122.5" y="104" width="7" height="2" fill="none" stroke="rgb(0,0,0)" stroke-width="0.5" opacity="0.2"/>
  <rect x="134.5" y="104" width="7" height="2" fill="rgb(56,65,157)"/>
  <rect x="134.5" y="104" width="7" height="2" fill="none" stroke="rgb(0,0,0)" stroke-width="0.5" opacity="0.2"/>
  <rect x="146.5" y="104" width="7" height="2" fill="rgb(56,65,157)"/>
  <rect x="146.5" y="104" width="7" height="2" fill="none" stroke="rgb(0,0,0)" stroke-width="0.5" opacity="0.2"/>
  <rect x="204" y="106" width="36" height="15" fill="rgb(242,245,151)"/>
  <line x1="204" y1="106" x2="240" y2="106" stroke="rgb(0,0,0)" stroke-width="0.5" opacity="0.3"/>
  <line x1="204" y1="121" x2="240" y2="121" stroke="rgb(0,0,0)" stroke-width="0.5" opacity="0.3"/>
  <line x1="204" y1="106" x2="204" y2="121" stroke="rgb(0,0,0)" stroke-width="0.5" opacity="0.3"/>
  <line x1="240" y1="106" x2="240" y2="121" stroke="rgb(0,0,0)" stroke-width="0.5" opacity="0.3"/>
  <rect x="206.5" y="104" width="7" height="2" fill="rgb(242,245,151)"/>
  <rect x="206.5" y="104" width="7" height="2" fill="none" stroke="rgb(0,0,0)" stroke-width="0.5" opacity="0.2"/>
  <rect x="218.5" y="104" width="7" height="2" fill="rgb(242,245,151)"/>
  <rect x="218.5" y="104" width="7" height="2" fill="none" stroke="rgb(0,0,0)" stroke-width="0.5" opacity="0.2"/>
  <rect x="230.5" y="104" width="7" height="2" fill="rgb(242,245,151)"/>
  <rect x="230.5" y="104" width="7" height="2" fill="none" stroke="rgb(0,0,0)" stroke-width="0.5" opacity="0.2"/>
  <rect x="0" y="91" width="12" height="15" fill="rgb(82,211,216)"/>
  <line x1="0" y1="91" x2="12" y2="91" stroke="rgb(0,0,0)" stroke-width="0.5" opacity="0.3"/>
  <line x1="0" y1="106" x2="12" y2="106" stroke="rgb(0,0,0)" stroke-width="0.5" opacity="0.3"/>
  <line x1="0" y1="91" x2="0" y2="106" stroke="rgb(0,0,0)" stroke-width="0.5" opacity="0.3"/>
  <line x1="12" y1="91" x2="12" y2="106" stroke="rgb(0,0,0)" stroke-width="0.5" opacity="0.3"/>
  <rect x="2.5" y="89" width="7" height="2" fill="rgb(82,211,216)"/>
  <rect x="2.5" y="89" width="7" height="2" fill="none" stroke="rgb(0,0,0)" stroke-width="0.5" opacity="0.2"/>
  <rect x="72" y="91" width="24" height="15" fill="rgb(56,65,157)"/>
  <line x1="72" y1="91" x2="96" y2="91" stroke="rgb(0,0,0)" stroke-width="0.5" opacity="0.3"/>
  <line x1="72" y1="106" x2="96" y2="106" stroke="rgb(0,0,0)" stroke-width="0.5" opacity="0.3"/>
  <line x1="72" y1="91" x2="72" y2="106" stroke="rgb(0,0,0)" stroke-width="0.5" opacity="0.3"/>
  <line x1="96" y1="91" x2="96" y2="106" stroke="rgb(0,0,0)" stroke-width="0.5" opacity="0.3"/>
  <rect x="74.5" y="89" width="7" height="2" fill="rgb(56,65,157)"/>
  <rect x="74.5" y="89" width="7" height="2" fill="none" stroke="rgb(0,0,0)" stroke-width="0.5" opacity="0.2"/>
  <rect x="86.5" y="89" width="7" height="2" fill="rgb(56,65,157)"/>
  <rect x="86.5" y="89" width="7" height="2" fill="none" stroke="rgb(0,0,0)" stroke-width="0.5" opacity="0.2"/>
  <rect x="132" y="91" width="36" height="15" fill="rgb(56,65,157)"/>
  <line x1="132" y1="91" x2="168" y2="91" stroke="rgb(0,0,0)" stroke-width="0.5" opacity="0.3"/>
  <line x1="132" y1="106" x2="168" y2="106" stroke="rgb(0,0,0)" stroke-width="0.5" opacity="0.3"/>
  <line x1="132" y1="91" x2="132" y2="106" stroke="rgb(0,0,0)" stroke-width="0.5" opacity="0.3"/>
  <line x1="168" y1="91" x2="168" y2="106" stroke="rgb(0,0,0)" stroke-width="0.5" opacity="0.3"/>
  <rect x="134.5" y="89" width="7" height="2" fill="rgb(56,65,157)"/>
  <rect x="134.5" y="89" width="7" height="2" fill="none" stroke="rgb(0,0,0)" stroke-width="0.5" opacity="0.2"/>
  <rect x="146.5" y="89" width="7" height="2" fill="rgb(56,65,157)"/>
  <rect x="146.5" y="89" width="7" height="2" fill="none" stroke="rgb(0,0,0)" stroke-width="0.5" opacity="0.2"/>
  <rect x="158.5" y="89" width="7" height="2" fill="rgb(56,65,157)"/>
  <rect x="158.5" y="89" width="7" height="2" fill="none" stroke="rgb(0,0,0)" stroke-width="0.5" opacity="0.2"/>
  <rect x="192" y="91" width="48" height="15" fill="rgb(242,245,151)"/>
  <line x1="192" y1="91" x2="240" y2="91" stroke="rgb(0,0,0)" stroke-width="0.5" opacity="0.3"/>
  <line x1="192" y1="106" x2="240" y2="106" stroke="rgb(0,0,0)" stroke-width="0.5" opacity="0.3"/>
  <line x1="192" y1="91" x2="192" y2="106" stroke="rgb(0,0,0)" stroke-width="0.5" opacity="0.3"/>
  <line x1="240" y1="91" x2="240" y2="106" stroke="rgb(0,0,0)" stroke-width="0.5" opacity="0.3"/>
  <rect x="194.5" y="89" width="7" height="2" fill="rgb(242,245,151)"/>
  <rect x="194.5" y="89" width="7" height="2" fill="none" stroke="rgb(0,0,0)" stroke-width="0.5" opacity="0.2"/>
  <rect x="206.5" y="89" width="7" height="2" fill="rgb(242,245,151)"/>
  <rect x="206.5" y="89" width="7" height="2" fill="none" stroke="rgb(0,0,0)" stroke-width="0.5" opacity="0.2"/>
  <rect x="218.5" y="89" width="7" height="2" fill="rgb(242,245,151)"/>
  <rect x="218.5" y="89" width="7" height="2" fill="none" stroke="rgb(0,0,0)" stroke-width="0.5" opacity="0.2"/>
  <rect x="230.5" y="89" width="7" height="2" fill="rgb(242,245,151)"/>
  <rect x="230.5" y="89" width="7" height="2" fill="none" stroke="rgb(0,0,0)" stroke-width="0.5" opacity="0.2"/>
  <rect x="72" y="76" width="24" height="15" fill="rgb(56,65,157)"/>
  <line x1="72" y1="76" x2="96" y2="76" stroke="rgb(0,0,0)" stroke-width="0.5" opacity="0.3"/>
  <line x1="72" y1="91" x2="96" y2="91" stroke="rgb(0,0,0)" stroke-width="0.5" opacity="0.3"/>
  <line x1="72" y1="76" x2="72" y2="91" stroke="rgb(0,0,0)" stroke-width="0.5" opacity="0.3"/>
  <line x1="96" y1="76" x2="96" y2="91" stroke="rgb(0,0,0)" stroke-width="0.5" opacity="0.3"/>
  <rect x="74.5" y="74" width="7" height="2" fill="rgb(56,65,157)"/>
  <rect x="74.5" y="74" width="7" height="2" fill="none" stroke="rgb(0,0,0)" stroke-width="0.5" opacity="0.2"/>
  <rect x="86.5" y="74" width="7" height="2" fill="rgb(56,65,157)"/>
  <rect x="86.5" y="74" width="7" height="2" fill="none" stroke="rgb(0,0,0)" stroke-width="0.5" opacity="0.2"/>
  <rect x="144" y="76" width="24" height="15" fill="rgb(56,65,157)"/>
  <line x1="144" y1="76" x2="168" y2="76" stroke="rgb(0,0,0)" stroke-width="0.5" opacity="0.3"/>
  <line x1="144" y1="91" x2="168" y2="91" stroke="rgb(0,0,0)" stroke-width="0.5" opacity="0.3"/>
  <line x1="144" y1="76" x2="144" y2="91" stroke="rgb(0,0,0)" stroke-width="0.5" opacity="0.3"/>
  <line x1="168" y1="76" x2="168" y2="91" stroke="rgb(0,0,0)" stroke-width="0.5" opacity="0.3"/>
  <rect x="146.5" y="74" width="7" height="2" fill="rgb(56,65,157)"/>
  <rect x="146.5" y="74" width="7" height="2" fill="none" stroke="rgb(0,0,0)" stroke-width="0.5" opacity="0.2"/>
  <rect x="158.5" y="74" width="7" height="2" fill="rgb(56,65,157)"/>
  <rect x="158.5" y="74" width="7" height="2" fill="none" stroke="rgb(0,0,0)" stroke-width="0.5" opacity="0.2"/>
  <rect x="192" y="76" width="24" height="15" fill="rgb(242,245,151)"/>
  <line x1="192" y1="76" x2="216" y2="76" stroke="rgb(0,0,0)" stroke-width="0.5" opacity="0.3"/>
  <line x1="192" y1="91" x2="216" y2="91" stroke="rgb(0,0,0)" stroke-width="0.5" opacity="0.3"/>
  <line x1="192" y1="76" x2="192" y2="91" stroke="rgb(0,0,0)" stroke-width="0.5" opacity="0.3"/>
  <line x1="216" y1="76" x2="216" y2="91" stroke="rgb(0,0,0)" stroke-width="0.5" opacity="0.3"/>
  <rect x="194.5" y="74" width="7" height="2" fill="rgb(242,245,151)"/>
  <rect x="194.5" y="74" width="7" height="2" fill="none" stroke="rgb(0,0,0)" stroke-width="0.5" opacity="0.2"/>
  <rect x="206.5" y="74" width="7" height="2" fill="rgb(242,245,151)"/>
  <rect x="206.5" y="74" width="7" height="2" fill="none" stroke="rgb(0,0,0)" stroke-width="0.5" opacity="0.2"/>
  <rect x="228" y="76" width="12" height="15" fill="rgb(242,245,151)"/>
  <line x1="228" y1="76" x2="240" y2="76" stroke="rgb(0,0,0)" stroke-width="0.5" opacity="0.3"/>
  <line x1="228" y1="91" x2="240" y2="91" stroke="rgb(0,0,0)" stroke-width="0.5" opacity="0.3"/>
  <line x1="228" y1="76" x2="228" y2="91" stroke="rgb(0,0,0)" stroke-width="0.5" opacity="0.3"/>
  <line x1="240" y1="76" x2="240" y2="91" stroke="rgb(0,0,0)" stroke-width="0.5" opacity="0.3"/>
  <rect x="230.5" y="74" width="7" height="2" fill="rgb(242,245,151)"/>
  <rect x="230.5" y="74" width="7" height="2" fill="none" stroke="rgb(0,0,0)" stroke-width="0.5" opacity="0.2"/>
  <rect x="24" y="61" width="12" height="15" fill="rgb(82,211,216)"/>
  <line x1="24" y1="61" x2="36" y2="61" stroke="rgb(0,0,0)" stroke-width="0.5" opacity="0.3"/>
  <line x1="24" y1="76" x2="36" y2="76" stroke="rgb(0,0,0)" stroke-width="0.5" opacity="0.3"/>
  <line x1="24" y1="61" x2="24" y2="76" stroke="rgb(0,0,0)" stroke-width="0.5" opacity="0.3"/>
  <line x1="36" y1="61" x2="36" y2="76" stroke="rgb(0,0,0)" stroke-width="0.5" opacity="0.3"/>
  <rect x="26.5" y="59" width="7" height="2" fill="rgb(82,211,216)"/>
  <rect x="26.5" y="59" width="7" height="2" fill="none" stroke="rgb(0,0,0)" stroke-width="0.5" opacity="0.2"/>
  <rect x="72" y="61" width="24" height="15" fill="rgb(56,65,157)"/>
  <line x1="72" y1="61" x2="96" y2="61" stroke="rgb(0,0,0)" stroke-width="0.5" opacity="0.3"/>
  <line x1="72" y1="76" x2="96" y2="76" stroke="rgb(0,0,0)" stroke-width="0.5" opacity="0.3"/>
  <line x1="72" y1="61" x2="72" y2="76" stroke="rgb(0,0,0)" stroke-width="0.5" opacity="0.3"/>
  <line x1="96" y1="61" x2="96" y2="76" stroke="rgb(0,0,0)" stroke-width="0.5" opacity="0.3"/>
  <rect x="74.5" y="59" width="7" height="2" fill="rgb(56,65,157)"/>
  <rect x="74.5" y="59" width="7" height="2" fill="none" stroke="rgb(0,0,0)" stroke-width="0.5" opacity="0.2"/>
  <rect x="86.5" y="59" width="7" height="2" fill="rgb(56,65,157)"/>
  <rect x="86.5" y="59" width="7" height="2" fill="none" stroke="rgb(0,0,0)" stroke-width="0.5" opacity="0.2"/>
  <rect x="132" y="61" width="36" height="15" fill="rgb(56,65,157)"/>
  <line x1="132" y1="61" x2="168" y2="61" stroke="rgb(0,0,0)" stroke-width="0.5" opacity="0.3"/>
  <line x1="132" y1="76" x2="168" y2="76" stroke="rgb(0,0,0)" stroke-width="0.5" opacity="0.3"/>
  <line x1="132" y1="61" x2="132" y2="76" stroke="rgb(0,0,0)" stroke-width="0.5" opacity="0.3"/>
  <line x1="168" y1="61" x2="168" y2="76" stroke="rgb(0,0,0)" stroke-width="0.5" opacity="0.3"/>
  <rect x="134.5" y="59" width="7" height="2" fill="rgb(56,65,157)"/>
  <rect x="134.5" y="59" width="7" height="2" fill="none" stroke="rgb(0,0,0)" stroke-width="0.5" opacity="0.2"/>
  <rect x="146.5" y="59" width="7" height="2" fill="rgb(56,65,157)"/>
  <rect x="146.5" y="59" width="7" height="2" fill="none" stroke="rgb(0,0,0)" stroke-width="0.5" opacity="0.2"/>
  <rect x="158.5" y="59" width="7" height="2" fill="rgb(56,65,157)"/>
  <rect x="158.5" y="59" width="7" height="2" fill="none" stroke="rgb(0,0,0)" stroke-width="0.5" opacity="0.2"/>
  <rect x="180" y="61" width="36" height="15" fill="rgb(242,245,151)"/>
  <line x1="180" y1="61" x2="216" y2="61" stroke="rgb(0,0,0)" stroke-width="0.5" opacity="0.3"/>
  <line x1="180" y1="76" x2="216" y2="76" stroke="rgb(0,0,0)" stroke-width="0.5" opacity="0.3"/>
  <line x1="180" y1="61" x2="180" y2="76" stroke="rgb(0,0,0)" stroke-width="0.5" opacity="0.3"/>
  <line x1="216" y1="61" x2="216" y2="76" stroke="rgb(0,0,0)" stroke-width="0.5" opacity="0.3"/>
  <rect x="182.5" y="59" width="7" height="2" fill="rgb(242,245,151)"/>
  <rect x="182.5" y="59" width="7" height="2" fill="none" stroke="rgb(0,0,0)" stroke-width="0.5" opacity="0.2"/>
  <rect x="194.5" y="59" width="7" height="2" fill="rgb(242,245,151)"/>
  <rect x="194.5" y="59" width="7" height="2" fill="none" stroke="rgb(0,0,0)" stroke-width="0.5" opacity="0.2"/>
  <rect x="206.5" y="59" width="7" height="2" fill="rgb(242,245,151)"/>
  <rect x="206.5" y="59" width="7" height="2" fill="none" stroke="rgb(0,0,0)" stroke-width="0.5" opacity="0.2"/>
  <rect x="0" y="46" width="48" height="15" fill="rgb(82,211,216)"/>
  <line x1="0" y1="46" x2="48" y2="46" stroke="rgb(0,0,0)" stroke-width="0.5" opacity="0.3"/>
  <line x1="0" y1="61" x2="48" y2="61" stroke="rgb(0,0,0)" stroke-width="0.5" opacity="0.3"/>
  <line x1="0" y1="46" x2="0" y2="61" stroke="rgb(0,0,0)" stroke-width="0.5" opacity="0.3"/>
  <line x1="48" y1="46" x2="48" y2="61" stroke="rgb(0,0,0)" stroke-width="0.5" opacity="0.3"/>
  <rect x="2.5" y="44" width="7" height="2" fill="rgb(82,211,216)"/>
  <rect x="2.5" y="44" width="7" height="2" fill="none" stroke="rgb(0,0,0)" stroke-width="0.5" opacity="0.2"/>
  <rect x="14.5" y="44" width="7" height="2" fill="rgb(82,211,216)"/>
  <rect x="14.5" y="44" width="7" height="2" fill="none" stroke="rgb(0,0,0)" stroke-width="0.5" opacity="0.2"/>
  <rect x="26.5" y="44" width="7" height="2" fill="rgb(82,211,216)"/>
  <rect x="26.5" y="44" width="7" height="2" fill="none" stroke="rgb(0,0,0)" stroke-width="0.5" opacity="0.2"/>
  <rect x="38.5" y="44" width="7" height="2" fill="rgb(82,211,216)"/>
  <rect x="38.5" y="44" width="7" height="2" fill="none" stroke="rgb(0,0,0)" stroke-width="0.5" opacity="0.2"/>
  <rect x="72" y="46" width="36" height="15" fill="rgb(56,65,157)"/>
  <line x1="72" y1="46" x2="108" y2="46" stroke="rgb(0,0,0)" stroke-width="0.5" opacity="0.3"/>
  <line x1="72" y1="61" x2="108" y2="61" stroke="rgb(0,0,0)" stroke-width="0.5" opacity="0.3"/>
  <line x1="72" y1="46" x2="72" y2="61" stroke="rgb(0,0,0)" stroke-width="0.5" opacity="0.3"/>
  <line x1="108" y1="46" x2="108" y2="61" stroke="rgb(0,0,0)" stroke-width="0.5" opacity="0.3"/>
  <rect x="74.5" y="44" width="7" height="2" fill="rgb(56,65,157)"/>
  <rect x="74.5" y="44" width="7" height="2" fill="none" stroke="rgb(0,0,0)" stroke-width="0.5" opacity="0.2"/>
  <rect x="86.5" y="44" width="7" height="2" fill="rgb(56,65,157)"/>
  <rect x="86.5" y="44" width="7" height="2" fill="none" stroke="rgb(0,0,0)" stroke-width="0.5" opacity="0.2"/>
  <rect x="98.5" y="44" width="7" height="2" fill="rgb(56,65,157)"/>
  <rect x="98.5" y="44" width="7" height="2" fill="none" stroke="rgb(0,0,0)" stroke-width="0.5" opacity="0.2"/>
  <rect x="108" y="46" width="48" height="15" fill="rgb(56,65,157)"/>
  <line x1="108" y1="46" x2="156" y2="46" stroke="rgb(0,0,0)" stroke-width="0.5" opacity="0.3"/>
  <line x1="108" y1="61" x2="156" y2="61" stroke="rgb(0,0,0)" stroke-width="0.5" opacity="0.3"/>
  <line x1="108" y1="46" x2="108" y2="61" stroke="rgb(0,0,0)" stroke-width="0.5" opacity="0.3"/>
  <line x1="156" y1="46" x2="156" y2="61" stroke="rgb(0,0,0)" stroke-width="0.5" opacity="0.3"/>
  <rect x="110.5" y="44" width="7" height="2" fill="rgb(56,65,157)"/>
  <rect x="110.5" y="44" width="7" height="2" fill="none" stroke="rgb(0,0,0)" stroke-width="0.5" opacity="0.2"/>
  <rect x="122.5" y="44" width="7" height="2" fill="rgb(56,65,157)"/>
  <rect x="122.5" y="44" width="7" height="2" fill="none" stroke="rgb(0,0,0)" stroke-width="0.5" opacity="0.2"/>
  <rect x="134.5" y="44" width="7" height="2" fill="rgb(56,65,157)"/>
  <rect x="134.5" y="44" width="7" height="2" fill="none" stroke="rgb(0,0,0)" stroke-width="0.5" opacity="0.2"/>
  <rect x="146.5" y="44" width="7" height="2" fill="rgb(56,65,157)"/>
  <rect x="146.5" y="44" width="7" height="2" fill="none" stroke="rgb(0,0,0)" stroke-width="0.5" opacity="0.2"/>
  <rect x="168" y="46" width="36" height="15" fill="rgb(242,245,151)"/>
  <line x1="168" y1="46" x2="204" y2="46" stroke="rgb(0,0,0)" stroke-width="0.5" opacity="0.3"/>
  <line x1="168" y1="61" x2="204" y2="61" stroke="rgb(0,0,0)" stroke-width="0.5" opacity="0.3"/>
  <line x1="168" y1="46" x2="168" y2="61" stroke="rgb(0,0,0)" stroke-width="0.5" opacity="0.3"/>
  <line x1="204" y1="46" x2="204" y2="61" stroke="rgb(0,0,0)" stroke-width="0.5" opacity="0.3"/>
  <rect x="170.5" y="44" width="7" height="2" fill="rgb(242,245,151)"/>
  <rect x="170.5" y="44" width="7" height="2" fill="none" stroke="rgb(0,0,0)" stroke-width="0.5" opacity="0.2"/>
  <rect x="182.5" y="44" width="7" height="2" fill="rgb(242,245,151)"/>
  <rect x="182.5" y="44" width="7" height="2" fill="none" stroke="rgb(0,0,0)" stroke-width="0.5" opacity="0.2"/>
  <rect x="194.5" y="44" width="7" height="2" fill="rgb(242,245,151)"/>
  <rect x="194.5" y="44" width="7" height="2" fill="none" stroke="rgb(0,0,0)" stroke-width="0.5" opacity="0.2"/>
  <rect x="0" y="31" width="36" height="15" fill="rgb(82,211,216)"/>
  <line x1="0" y1="31" x2="36" y2="31" stroke="rgb(0,0,0)" stroke-width="0.5" opacity="0.3"/>
  <line x1="0" y1="46" x2="36" y2="46" stroke="rgb(0,0,0)" stroke-width="0.5" opacity="0.3"/>
  <line x1="0" y1="31" x2="0" y2="46" stroke="rgb(0,0,0)" stroke-width="0.5" opacity="0.3"/>
  <line x1="36" y1="31" x2="36" y2="46" stroke="rgb(0,0,0)" stroke-width="0.5" opacity="0.3"/>
  <rect x="2.5" y="29" width="7" height="2" fill="rgb(82,211,216)"/>
  <rect x="2.5" y="29" width="7" height="2" fill="none" stroke="rgb(0,0,0)" stroke-width="0.5" opacity="0.2"/>
  <rect x="14.5" y="29" width="7" height="2" fill="rgb(82,211,216)"/>
  <rect x="14.5" y="29" width="7" height="2" fill="none" stroke="rgb(0,0,0)" stroke-width="0.5" opacity="0.2"/>
  <rect x="26.5" y="29" width="7" height="2" fill="rgb(82,211,216)"/>
  <rect x="26.5" y="29" width="7" height="2" fill="none" stroke="rgb(0,0,0)" stroke-width="0.5" opacity="0.2"/>
  <rect x="72" y="31" width="48" height="15" fill="rgb(56,65,157)"/>
  <line x1="72" y1="31" x2="120" y2="31" stroke="rgb(0,0,0)" stroke-width="0.5" opacity="0.3"/>
  <line x1="72" y1="46" x2="120" y2="46" stroke="rgb(0,0,0)" stroke-width="0.5" opacity="0.3"/>
  <line x1="72" y1="31" x2="72" y2="46" stroke="rgb(0,0,0)" stroke-width="0.5" opacity="0.3"/>
  <line x1="120" y1="31" x2="120" y2="46" stroke="rgb(0,0,0)" stroke-width="0.5" opacity="0.3"/>
  <rect x="74.5" y="29" width="7" height="2" fill="rgb(56,65,157)"/>
  <rect x="74.5" y="29" width="7" height="2" fill="none" stroke="rgb(0,0,0)" stroke-width="0.5" opacity="0.2"/>
  <rect x="86.5" y="29" width="7" height="2" fill="rgb(56,65,157)"/>
  <rect x="86.5" y="29" width="7" height="2" fill="none" stroke="rgb(0,0,0)" stroke-width="0.5" opacity="0.2"/>
  <rect x="98.5" y="29" width="7" height="2" fill="rgb(56,65,157)"/>
  <rect x="98.5" y="29" width="7" height="2" fill="none" stroke="rgb(0,0,0)" stroke-width="0.5" opacity="0.2"/>
  <rect x="110.5" y="29" width="7" height="2" fill="rgb(56,65,157)"/>
  <rect x="110.5" y="29" width="7" height="2" fill="none" stroke="rgb(0,0,0)" stroke-width="0.5" opacity="0.2"/>
  <rect x="120" y="31" width="24" height="15" fill="rgb(56,65,157)"/>
  <line x1="120" y1="31" x2="144" y2="31" stroke="rgb(0,0,0)" stroke-width="0.5" opacity="0.3"/>
  <line x1="120" y1="46" x2="144" y2="46" stroke="rgb(0,0,0)" stroke-width="0.5" opacity="0.3"/>
  <line x1="120" y1="31" x2="120" y2="46" stroke="rgb(0,0,0)" stroke-width="0.5" opacity="0.3"/>
  <line x1="144" y1="31" x2="144" y2="46" stroke="rgb(0,0,0)" stroke-width="0.5" opacity="0.3"/>
  <rect x="122.5" y="29" width="7" height="2" fill="rgb(56,65,157)"/>
  <rect x="122.5" y="29" width="7" height="2" fill="none" stroke="rgb(0,0,0)" stroke-width="0.5" opacity="0.2"/>
  <rect x="134.5" y="29" width="7" height="2" fill="rgb(56,65,157)"/>
  <rect x="134.5" y="29" width="7" height="2" fill="none" stroke="rgb(0,0,0)" stroke-width="0.5" opacity="0.2"/>
  <rect x="168" y="31" width="36" height="15" fill="rgb(242,245,151)"/>
  <line x1="168" y1="31" x2="204" y2="31" stroke="rgb(0,0,0)" stroke-width="0.5" opacity="0.3"/>
  <line x1="168" y1="46" x2="204" y2="46" stroke="rgb(0,0,0)" stroke-width="0.5" opacity="0.3"/>
  <line x1="168" y1="31" x2="168" y2="46" stroke="rgb(0,0,0)" stroke-width="0.5" opacity="0.3"/>
  <line x1="204" y1="31" x2="204" y2="46" stroke="rgb(0,0,0)" stroke-width="0.5" opacity="0.3"/>
  <rect x="170.5" y="29" width="7" height="2" fill="rgb(242,245,151)"/>
  <rect x="170.5" y="29" width="7" height="2" fill="none" stroke="rgb(0,0,0)" stroke-width="0.5" opacity="0.2"/>
  <rect x="182.5" y="29" width="7" height="2" fill="rgb(242,245,151)"/>
  <rect x="182.5" y="29" width="7" height="2" fill="none" stroke="rgb(0,0,0)" stroke-width="0.5" opacity="0.2"/>
  <rect x="194.5" y="29" width="7" height="2" fill="rgb(242,245,151)"/>
  <rect x="194.5" y="29" width="7" height="2" fill="none" stroke="rgb(0,0,0)" stroke-width="0.5" opacity="0.2"/>
</svg>